<svg width="676" height="585" viewBox="0 0 676 585" fill="none" xmlns="http://www.w3.org/2000/svg">
<path opacity="0.05" d="M348.785 530.527C342.994 525.395 336.894 520.219 331.102 514.512C326.461 518.804 322.129 522.829 317.531 526.811C260.195 576.272 201.09 596.888 166.079 576.847C132.172 557.691 121.518 501.108 135.09 429.881C136.549 422.183 138.273 414.441 140.306 406.743C134.206 404.929 128.415 403.292 122.623 401.346C50.4781 376.704 3 336.667 3 296.629C3 256.592 47.2952 220.58 116.523 196.558C124.259 193.992 132.437 191.426 140.881 189.126C138.936 181.693 137.433 174.526 135.974 167.625C121.474 95.3362 131.597 37.6028 165.813 18.1813C201.444 -2.39039 260.504 19.597 319.874 71.358C323.322 74.4991 326.814 77.9498 330.572 81.3563C336.054 76.2245 341.27 71.0484 346.796 66.4916C402.938 18.0928 458.816 -2.12495 493.032 17.3407C528.662 37.3373 539.095 99.0967 523.181 175.455C522.297 180.322 521.236 184.923 519.998 189.789C527.248 191.78 534.454 194.08 541.129 196.381C611.815 220.403 657.569 257.831 656.995 297.293C656.995 337.596 608.058 377.368 532.995 401.921C528.928 403.071 524.905 404.487 520.838 405.637C522.562 411.344 523.711 417.051 524.905 422.802C539.979 496.86 528.353 557.47 493.341 577.466C484.146 582.598 473.581 585.208 462.839 584.987C430.744 584.943 389.986 565.389 348.874 530.527H348.785ZM405.547 425.589C388.925 449.523 370.623 472.44 350.819 494.206C356.3 499.603 361.826 504.514 367.308 509.071C415.095 549.683 459.125 564.813 479.681 553.09C485.959 548.091 491.087 541.941 494.8 535.084C498.469 528.227 500.635 520.706 501.122 513.052C505.321 484.694 504.128 455.85 497.629 427.846C496.745 422.714 495.684 417.538 494.181 412.14C465.005 418.467 435.386 422.935 405.547 425.545V425.589ZM162.852 434.747C151.004 495.666 159.669 541.101 180.269 552.824C187.563 555.656 195.476 556.939 203.389 556.629C211.302 556.319 219.038 554.417 226.067 551.01C253.387 540.393 278.231 525.041 299.362 505.841C303.694 502.39 307.761 498.409 312.094 494.427C291.847 472.661 273.059 449.745 255.907 425.811C226.2 423.51 196.67 419.307 167.582 413.246C165.769 420.723 164.31 427.846 162.896 434.747H162.852ZM331.412 474.785C344.143 460.76 356.875 445.321 369.651 428.2C356.919 428.775 343.569 429.04 330.263 429.04C316.956 429.04 304.49 428.775 292.024 428.2C305.065 445.055 318.106 460.76 331.412 474.785ZM270.583 195.762C259.576 211.467 248.878 228.013 238.71 245.532C228.587 262.697 219.348 280.128 210.904 297.514C219.613 314.679 228.852 332.11 239.02 349.85C249.143 367.015 259.885 383.915 270.893 399.886C289.99 401.036 310.016 401.7 330.263 401.7C350.509 401.7 370.8 401.125 390.207 399.709C400.64 384.004 411.338 367.104 421.505 349.673C431.673 332.243 441.177 314.502 449.621 297.381C441.221 280.526 431.673 263.095 421.505 245.62C411.382 228.145 400.64 211.555 389.942 195.85C370.579 194.434 350.553 193.55 330.263 193.55C309.972 193.55 289.99 194.39 270.583 195.806V195.762ZM175.008 387.012C194.901 391.215 215.016 394.356 235.262 396.479C228.322 385.641 221.381 374.757 214.706 363.299C208.34 352.151 201.975 341.002 196.183 329.854C187.784 349.275 180.844 368.475 175.053 387.012H175.008ZM445.775 362.99C439.1 374.404 432.424 385.287 425.793 395.86C446.349 393.471 466.773 390.065 486.887 385.552C480.61 366.263 473.227 347.284 464.872 328.659C458.772 340.073 452.406 351.531 445.731 362.945L445.775 362.99ZM125.497 222.881C66.4367 243.452 30.806 273.447 30.806 296.939C31.9112 304.504 34.652 311.759 38.8517 318.351C43.0071 324.943 48.5772 330.694 55.1198 335.251C77.7094 352.814 103.659 366.396 131.597 375.288C136.814 377.102 142.295 378.429 147.821 380.155C156.707 352.018 167.449 324.456 179.96 297.514C167.405 271.058 156.795 243.851 148.087 216.112C140.262 218.059 132.747 220.315 125.497 222.881ZM480.875 296.939C493.739 323.527 504.747 350.823 513.809 378.695C517.567 377.545 521.368 376.394 524.816 375.244C589.403 354.097 629.454 321.802 629.675 296.629C629.675 273.182 592.63 242.877 532.066 222.306C525.966 220.315 519.335 218.324 512.704 216.289C503.951 243.762 493.297 270.704 480.875 296.939ZM445.554 231.198C452.229 242.612 458.595 253.805 464.386 264.953C472.431 246.726 479.372 228.101 485.251 209.211C465.579 204.787 445.686 201.336 425.572 198.903C432.513 209.476 439.188 220.049 445.554 231.198ZM175.318 208.945C181.109 227.261 188.049 245.841 196.183 264.953C201.975 253.805 208.34 242.656 214.706 231.508C221.072 220.359 227.747 209.52 234.688 198.903C213.822 201.424 194.15 204.831 175.318 208.901V208.945ZM365.009 87.4172C360.102 91.7086 355.151 96.2653 350.244 100.866C370.358 122.367 388.836 145.106 405.547 168.952C435.033 171.606 464.253 176.163 493.032 182.666C494.181 178.375 494.977 174.084 495.949 169.793C509.521 104.052 501.166 53.7062 479.151 41.142C474.332 38.6203 468.851 37.3816 463.281 37.5585C439.63 37.47 403.292 54.5025 365.009 87.3288V87.4172ZM179.65 41.8941C159.094 53.6177 150.96 100.512 163.161 162.272C164.62 168.863 166.079 175.411 167.803 182.268C196.626 175.986 225.802 171.518 255.288 168.819C272.086 144.93 290.653 122.19 310.9 100.734C307.717 97.5925 304.225 94.7169 301.042 91.8413C260.725 56.5818 222 38.0009 196.67 38.0009C190.702 37.824 184.822 39.1512 179.694 41.8941H179.65ZM369.076 166.519C357.14 150.548 344.232 135.152 330.484 120.509C317.443 134.489 304.402 149.973 291.714 166.519C304.446 165.944 317.177 165.678 330.218 165.678C343.259 165.678 356.3 165.899 369.076 166.519ZM272.352 298.045C272.086 290.701 273.368 283.357 276.154 276.5C278.939 269.598 283.182 263.316 288.62 257.963C294.057 252.61 300.6 248.275 307.806 245.266C315.055 242.258 322.88 240.577 330.793 240.311C346.84 240.798 362.003 247.169 372.966 258.008C383.93 268.846 389.809 283.224 389.323 298.089C389.853 312.91 383.974 327.332 373.01 338.215C362.047 349.054 346.884 355.424 330.837 355.911C322.88 355.69 315.055 354.009 307.806 350.956C300.556 347.904 294.013 343.612 288.62 338.215C283.182 332.862 278.939 326.536 276.154 319.634C273.368 312.733 272.086 305.433 272.352 298.045Z" fill="url(#paint0_linear_3_6224)"/>
<defs>
<linearGradient id="paint0_linear_3_6224" x1="330" y1="10" x2="330" y2="585" gradientUnits="userSpaceOnUse">
<stop stop-color="#81D8F7"/>
<stop offset="1" stop-color="#81D8F7" stop-opacity="0"/>
</linearGradient>
</defs>
</svg>
