<svg width="320" height="162" viewBox="0 0 320 162" fill="none" xmlns="http://www.w3.org/2000/svg">
<path d="M168.681 54.5744C168.1 54.0345 167.489 53.4927 166.908 52.895C166.443 53.3442 166.007 53.7642 165.543 54.1841C159.787 59.3662 153.858 61.5245 150.341 59.4262C146.939 57.4182 145.864 51.4829 147.231 44.0194C147.376 43.2098 147.55 42.4005 147.754 41.5916C147.144 41.4116 146.562 41.2317 145.981 41.0223C138.743 38.448 133.976 34.2482 133.976 30.0512C133.976 26.0059 138.426 22.0785 145.369 19.5612C146.154 19.2917 146.968 19.0213 147.811 18.7814C147.608 18.0016 147.462 17.2533 147.317 16.5335C145.864 8.94813 146.881 2.89477 150.312 0.857331C153.887 -1.30107 159.816 1.0068 165.775 6.43279C166.123 6.7622 166.472 7.12111 166.85 7.48101C167.403 6.94215 167.926 6.39935 168.479 5.92343C174.12 0.857331 179.728 -1.27157 183.156 0.766866C186.731 2.8643 187.778 9.34147 186.179 17.3418C186.092 17.8521 185.975 18.331 185.86 18.8414C186.586 19.0518 187.312 19.2907 187.982 19.5297C195.074 22.0481 199.667 25.9744 199.609 30.1113C199.609 34.3395 194.697 38.5038 187.168 41.0812C186.761 41.2011 186.355 41.3507 185.948 41.4746C186.122 42.0745 186.239 42.6733 186.355 43.2732C187.87 51.0414 186.704 57.3915 183.187 59.49C182.252 60.0294 181.195 60.3009 180.125 60.2767C176.897 60.2778 172.804 58.2235 168.681 54.5744ZM174.379 43.5739C172.702 46.0941 170.867 48.4972 168.888 50.7679C169.44 51.3384 169.992 51.8496 170.544 52.3265C175.34 56.5824 179.759 58.1714 181.822 56.9423C182.782 56.373 183.595 54.9343 183.974 52.7465C184.394 49.7723 184.275 46.7428 183.624 43.8139C183.537 43.2741 183.421 42.7322 183.275 42.1649C180.341 42.8279 177.369 43.2971 174.378 43.5699L174.379 43.5739ZM150.021 44.5337C148.83 50.9175 149.701 55.6836 151.765 56.9129C152.725 57.4822 154.321 57.4822 156.358 56.7329C159.069 55.6382 161.562 54.0326 163.711 51.9972C164.148 51.6373 164.554 51.2174 164.991 50.7985C162.966 48.5252 161.082 46.1207 159.35 43.5996C156.371 43.3587 153.41 42.919 150.486 42.2828C150.312 43.0607 150.166 43.8091 150.02 44.5289L150.021 44.5337ZM166.938 48.7295C168.217 47.2604 169.495 45.642 170.776 43.8434C169.497 43.9034 168.159 43.9329 166.823 43.9329C165.514 43.9329 164.235 43.903 162.986 43.8434C164.223 45.5393 165.542 47.1687 166.937 48.7256L166.938 48.7295ZM160.833 19.4697C159.729 21.1178 158.656 22.8563 157.636 24.6813C156.618 26.4797 155.688 28.3087 154.845 30.1359C155.717 31.9343 156.644 33.7633 157.664 35.6218C158.682 37.4204 159.758 39.1884 160.862 40.8669C162.78 40.9868 164.786 41.0469 166.821 41.0469C168.884 41.0469 170.892 40.9868 172.837 40.8375C173.884 39.1884 174.958 37.4204 175.976 35.5914C176.994 33.7624 177.952 31.9049 178.796 30.1062C177.953 28.3364 176.997 26.5094 175.976 24.6813C174.956 22.8532 173.883 21.1138 172.808 19.4697C170.861 19.3193 168.855 19.2288 166.821 19.2288C164.787 19.2288 162.781 19.3202 160.833 19.4697ZM151.241 39.5226C153.239 39.9632 155.257 40.2939 157.288 40.5128C156.59 39.3732 155.893 38.2346 155.224 37.0359C154.585 35.8677 153.944 34.6974 153.363 33.5293C152.555 35.4869 151.847 37.4875 151.241 39.5226ZM178.414 37.0044C177.746 38.2031 177.077 39.3426 176.409 40.4518C178.47 40.2015 180.517 39.8405 182.542 39.3701C181.909 37.3423 181.171 35.3512 180.333 33.4054C179.725 34.6037 179.087 35.8037 178.418 37.0053L178.414 37.0044ZM146.271 22.3213C140.342 24.4787 136.767 27.6314 136.767 30.0838C136.767 31.2233 137.58 32.6621 139.208 34.0997C141.506 35.9597 144.104 37.3804 146.881 38.2955C147.405 38.4755 147.957 38.6259 148.509 38.8059C149.405 35.8495 150.483 32.9557 151.737 30.1428C150.481 27.3758 149.412 24.5216 148.538 21.6006C147.754 21.8083 146.998 22.0488 146.271 22.3213ZM181.935 30.0838C183.224 32.8607 184.331 35.7247 185.249 38.6563C185.628 38.5373 186.007 38.4165 186.354 38.2964C192.836 36.078 196.847 32.6915 196.877 30.0532C196.877 27.5949 193.156 24.4187 187.08 22.2604C186.471 22.051 185.802 21.8404 185.134 21.631C184.248 24.5177 183.18 27.3406 181.935 30.0807V30.0838ZM178.39 23.1868C179.058 24.3855 179.697 25.5556 180.283 26.7266C181.089 24.8219 181.788 22.8704 182.376 20.8818C180.399 20.4167 178.4 20.0557 176.388 19.8001C177.081 20.9093 177.75 22.0184 178.39 23.1868ZM151.27 20.8464C151.851 22.7639 152.549 24.7128 153.363 26.7209C153.944 25.5525 154.585 24.3824 155.224 23.2142C155.863 22.0461 156.531 20.9064 157.229 19.7972C155.136 20.0705 153.16 20.4304 151.27 20.8464ZM170.31 8.11033C169.816 8.55972 169.321 9.03958 168.827 9.51944C170.836 11.7596 172.691 14.1435 174.379 16.6535C177.332 16.9288 180.265 17.4098 183.156 18.0931C183.272 17.6437 183.359 17.1933 183.447 16.7439C184.812 9.85083 183.97 4.57429 181.76 3.25665C181.269 2.99306 180.722 2.86444 180.17 2.88298C177.795 2.88199 174.152 4.66968 170.31 8.11033ZM151.706 3.34317C149.642 4.57134 148.829 9.48798 150.049 15.9622C150.194 16.6505 150.341 17.3388 150.514 18.0596C153.41 17.402 156.341 16.9317 159.293 16.6515C160.987 14.1381 162.852 11.754 164.873 9.51748C164.553 9.18708 164.205 8.88814 163.885 8.58724C159.835 4.88601 155.951 2.93215 153.41 2.93215C152.818 2.91213 152.23 3.05384 151.706 3.34317ZM170.716 16.4116C169.515 14.7297 168.224 13.1188 166.85 11.5864C165.543 13.0545 164.234 14.674 162.955 16.4116C164.234 16.3516 165.511 16.3221 166.821 16.3221C168.13 16.3221 169.437 16.3526 170.716 16.4116ZM161.005 30.2017C160.997 28.9942 161.334 27.8113 161.974 26.8031C162.614 25.7951 163.528 25.0071 164.6 24.5392C165.672 24.0711 166.854 23.9444 167.995 24.1749C169.136 24.4053 170.186 24.9825 171.011 25.8334C171.836 26.6843 172.399 27.7706 172.629 28.9544C172.859 30.1381 172.745 31.3661 172.302 32.4826C171.859 33.5992 171.106 34.5537 170.14 35.2256C169.174 35.8974 168.038 36.256 166.875 36.256C166.106 36.2608 165.344 36.1077 164.632 35.8057C163.921 35.5039 163.273 35.0586 162.728 34.4961C162.183 33.9334 161.75 33.2644 161.454 32.5274C161.158 31.7905 161.005 31.0001 161.005 30.2017Z" fill="#81D8F7"/>
<path d="M289.392 101.71C290.148 101.284 290.998 101.06 291.864 101.06C292.728 101.06 293.58 101.284 294.334 101.71C301.86 106.001 309.386 110.291 316.911 114.581C317.621 114.988 318.21 115.575 318.621 116.284C319.034 116.994 319.253 117.8 319.26 118.622V144.449C319.244 145.301 319.003 146.134 318.559 146.859C318.115 147.584 317.486 148.175 316.737 148.57C309.235 152.838 301.736 157.108 294.239 161.38C293.47 161.809 292.602 162.023 291.723 161.998C290.844 161.973 289.986 161.712 289.242 161.24C286.993 159.924 284.745 158.611 282.491 157.301C281.997 157.075 281.555 156.749 281.19 156.344C281.478 155.96 281.99 155.904 282.405 155.733C283.331 155.4 284.221 154.98 285.067 154.479C285.173 154.415 285.297 154.385 285.421 154.393C285.544 154.4 285.664 154.445 285.761 154.521C287.685 155.634 289.589 156.779 291.519 157.88C291.933 158.12 292.348 157.802 292.699 157.604C300.059 153.405 307.424 149.211 314.789 145.023C314.921 144.956 315.029 144.852 315.1 144.722C315.171 144.593 315.204 144.445 315.191 144.297C315.191 135.78 315.191 127.262 315.191 118.742C315.204 118.577 315.164 118.411 315.08 118.268C314.996 118.125 314.87 118.013 314.718 117.946C307.241 113.697 299.768 109.447 292.299 105.194C292.169 105.104 292.016 105.056 291.86 105.056C291.701 105.056 291.548 105.104 291.418 105.194C283.941 109.445 276.47 113.698 269.001 117.952C268.849 118.017 268.721 118.128 268.637 118.271C268.553 118.413 268.513 118.579 268.526 118.744C268.526 127.261 268.526 135.779 268.526 144.299C268.515 144.446 268.546 144.594 268.619 144.722C268.692 144.851 268.803 144.953 268.935 145.017C270.93 146.158 272.924 147.295 274.921 148.43C275.474 148.775 276.094 148.999 276.739 149.086C277.382 149.173 278.038 149.122 278.663 148.936C279.205 148.73 279.671 148.363 279.998 147.883C280.327 147.403 280.501 146.833 280.501 146.25C280.51 137.782 280.501 129.314 280.501 120.847C280.499 120.757 280.517 120.668 280.55 120.585C280.585 120.502 280.636 120.428 280.7 120.366C280.766 120.305 280.844 120.258 280.928 120.229C281.011 120.199 281.102 120.189 281.19 120.197C282.14 120.197 283.108 120.183 284.066 120.197C284.159 120.201 284.25 120.225 284.332 120.267C284.415 120.309 284.488 120.368 284.548 120.44C284.605 120.513 284.65 120.597 284.674 120.687C284.698 120.777 284.705 120.871 284.692 120.964C284.692 129.486 284.7 138.008 284.692 146.529C284.756 147.686 284.51 148.84 283.983 149.869C283.452 150.899 282.662 151.766 281.687 152.382C280.386 152.994 278.962 153.292 277.528 153.252C276.092 153.212 274.687 152.836 273.421 152.154C271.226 151.048 269.134 149.746 266.98 148.562C266.233 148.169 265.604 147.579 265.16 146.855C264.718 146.131 264.475 145.3 264.462 144.449V118.622C264.469 117.782 264.696 116.96 265.125 116.24C265.553 115.521 266.163 114.93 266.894 114.529C274.398 110.259 281.895 105.986 289.392 101.71Z" fill="#8CC84B"/>
<path d="M296.578 121.953C299.892 121.52 303.258 122.041 306.293 123.454C307.393 124.116 308.301 125.056 308.931 126.182C309.558 127.307 309.885 128.579 309.876 129.871C309.834 130.033 309.735 130.174 309.598 130.267C309.461 130.361 309.293 130.402 309.13 130.382C308.18 130.382 307.228 130.395 306.278 130.382C306.097 130.37 305.924 130.29 305.796 130.157C305.67 130.024 305.597 129.849 305.591 129.664C305.485 129.038 305.244 128.444 304.884 127.922C304.526 127.399 304.06 126.962 303.519 126.641C301.712 125.917 299.764 125.636 297.831 125.819C296.406 125.774 294.997 126.128 293.757 126.842C293.333 127.176 293.02 127.635 292.867 128.157C292.713 128.679 292.726 129.236 292.9 129.75C293.205 130.481 294.042 130.71 294.725 130.934C298.668 131.974 302.845 131.87 306.711 133.237C307.541 133.469 308.308 133.891 308.953 134.469C309.596 135.047 310.099 135.766 310.426 136.571C310.813 137.714 310.908 138.937 310.698 140.126C310.488 141.315 309.984 142.431 309.231 143.369C307.866 144.797 306.097 145.76 304.164 146.124C301.648 146.639 299.068 146.75 296.516 146.452C294.069 146.311 291.723 145.42 289.79 143.898C289.021 143.189 288.421 142.317 288.025 141.346C287.632 140.374 287.455 139.327 287.508 138.279C287.526 138.109 287.608 137.953 287.74 137.845C287.871 137.738 288.038 137.686 288.206 137.703C289.156 137.703 290.117 137.693 291.071 137.703C291.162 137.701 291.248 137.717 291.332 137.749C291.414 137.782 291.489 137.83 291.553 137.893C291.617 137.955 291.668 138.029 291.703 138.111C291.736 138.193 291.756 138.281 291.756 138.371C291.805 138.966 291.973 139.546 292.251 140.074C292.529 140.602 292.909 141.067 293.373 141.44C295.419 142.457 297.707 142.877 299.976 142.653C301.877 142.797 303.773 142.327 305.39 141.31C305.763 140.943 306.033 140.485 306.176 139.98C306.318 139.475 306.329 138.942 306.205 138.432C305.973 137.58 305.087 137.183 304.329 136.924C300.437 135.681 296.214 136.132 292.355 134.727C291.546 134.489 290.797 134.076 290.163 133.517C289.527 132.959 289.019 132.268 288.675 131.493C288.233 130.335 288.12 129.075 288.352 127.856C288.584 126.637 289.152 125.509 289.987 124.599C291.809 122.976 294.128 122.035 296.556 121.934L296.578 121.953Z" fill="#8CC84B"/>
<path d="M130.286 128.637C130.749 128.281 130.981 127.693 130.981 126.873V123.292C130.981 121.848 131.417 120.708 132.29 119.871C133.181 119.015 134.42 118.588 136.005 118.588V121.153C135.221 121.153 134.66 121.314 134.322 121.635C134.001 121.955 133.84 122.517 133.84 123.318V126.9C133.84 128.414 133.306 129.608 132.237 130.481C133.306 131.354 133.84 132.539 133.84 134.036V137.644C133.84 138.446 134.001 139.007 134.322 139.328C134.66 139.648 135.221 139.809 136.005 139.809V142.374C134.42 142.374 133.181 141.947 132.29 141.091C131.417 140.254 130.981 139.114 130.981 137.67V134.062C130.981 133.261 130.749 132.682 130.286 132.325C129.823 131.951 129.27 131.764 128.629 131.764V129.198C129.27 129.198 129.823 129.011 130.286 128.637ZM189.404 139.809C190.188 139.809 190.749 139.648 191.087 139.328C191.426 139.007 191.595 138.446 191.595 137.644V134.036C191.595 132.521 192.13 131.336 193.199 130.481C192.13 129.626 191.595 128.432 191.595 126.9V123.318C191.595 122.517 191.426 121.955 191.087 121.635C190.749 121.314 190.188 121.153 189.404 121.153V118.588C190.989 118.588 192.228 119.015 193.119 119.871C194.01 120.708 194.455 121.848 194.455 123.292V126.873C194.455 127.693 194.678 128.289 195.123 128.664C195.586 129.02 196.139 129.198 196.78 129.198V131.764C196.139 131.764 195.586 131.951 195.123 132.325C194.678 132.682 194.455 133.261 194.455 134.062V137.67C194.455 139.114 194.01 140.254 193.119 141.091C192.228 141.947 190.989 142.374 189.404 142.374V139.809Z" fill="#8257E5"/>
<path d="M139.578 126.739C140.95 125.26 142.607 124.521 144.549 124.521C145.618 124.521 146.607 124.797 147.516 125.35C148.442 125.884 149.12 126.57 149.547 127.407V118.588H152.728V139.434H149.814L149.627 136.682C149.182 137.537 148.496 138.241 147.569 138.793C146.643 139.345 145.636 139.622 144.549 139.622C142.607 139.622 140.941 138.882 139.551 137.403C138.179 135.924 137.493 134.151 137.493 132.085C137.493 130 138.188 128.218 139.578 126.739ZM142.01 135.185C142.866 136.058 143.899 136.495 145.111 136.495C146.34 136.495 147.382 136.067 148.238 135.212C149.111 134.339 149.547 133.296 149.547 132.085C149.547 130.855 149.111 129.813 148.238 128.958C147.382 128.085 146.34 127.648 145.111 127.648C143.899 127.648 142.866 128.085 142.01 128.958C141.155 129.813 140.727 130.855 140.727 132.085C140.727 133.296 141.155 134.33 142.01 135.185ZM157.483 126.739C158.855 125.26 160.512 124.521 162.454 124.521C163.541 124.521 164.548 124.806 165.474 125.376C166.401 125.929 167.087 126.641 167.532 127.514L167.719 124.735H170.632V139.434H167.719L167.532 136.682C167.087 137.537 166.401 138.241 165.474 138.793C164.548 139.345 163.541 139.622 162.454 139.622C160.512 139.622 158.846 138.882 157.456 137.403C156.084 135.924 155.398 134.151 155.398 132.085C155.398 130 156.093 128.218 157.483 126.739ZM159.915 135.185C160.77 136.058 161.804 136.495 163.015 136.495C164.245 136.495 165.287 136.067 166.142 135.212C167.015 134.339 167.452 133.296 167.452 132.085C167.452 130.855 167.015 129.813 166.142 128.958C165.287 128.085 164.245 127.648 163.015 127.648C161.804 127.648 160.77 128.085 159.915 128.958C159.06 129.813 158.632 130.855 158.632 132.085C158.632 133.296 159.06 134.33 159.915 135.185ZM172.902 124.735H176.697L180.492 129.653L184.261 124.735H188.029L182.657 132.085L188.029 139.434H184.261L180.492 134.517L176.697 139.434H172.902L178.301 132.085L172.902 124.735Z" fill="white"/>
<path d="M35.9772 153.402C35.383 152.876 34.7644 152.349 34.1724 151.765C33.6975 152.203 33.2535 152.613 32.7852 153.021C26.9248 158.074 20.8833 160.178 17.3026 158.133C13.8367 156.176 12.7455 150.394 14.1327 143.119C14.2807 142.331 14.4575 141.543 14.6651 140.754C14.0422 140.571 13.4502 140.403 12.8582 140.205C5.48468 137.687 0.629395 133.599 0.629395 129.509C0.629395 125.567 5.15997 121.741 12.2353 119.287C13.0261 119.024 13.8633 118.762 14.7225 118.527C14.5237 117.768 14.3691 117.037 14.2189 116.33C12.7389 108.947 13.7749 103.048 17.2673 101.061C20.9076 98.9574 26.9492 101.208 33.0172 106.493C33.3706 106.814 33.7284 107.165 34.1128 107.515C34.6739 106.989 35.2084 106.464 35.7695 105.997C41.515 101.054 47.2274 98.9867 50.7198 100.973C54.3623 103.016 55.4293 109.326 53.8013 117.125C53.7107 117.623 53.6025 118.09 53.4765 118.59C54.2165 118.795 54.9565 119.027 55.6369 119.262C62.8602 121.715 67.5388 125.542 67.4792 129.571C67.4792 133.689 62.4758 137.75 54.8041 140.262C54.3888 140.379 53.9758 140.525 53.5583 140.641C53.7372 141.225 53.8543 141.809 53.9736 142.393C55.5132 149.958 54.327 156.15 50.7463 158.195C49.8052 158.718 48.7251 158.985 47.6272 158.964C44.3447 158.958 40.1764 156.961 35.9772 153.402ZM41.7823 142.682C40.0814 145.127 38.2126 147.469 36.187 149.692C36.7481 150.242 37.3114 150.745 37.8747 151.212C42.7587 155.359 47.2583 156.908 49.3612 155.71C50.004 155.199 50.5298 154.574 50.9053 153.871C51.2808 153.169 51.5017 152.404 51.5525 151.622C51.9811 148.724 51.8596 145.778 51.1969 142.918C51.1063 142.393 50.9981 141.867 50.8413 141.313C47.8592 141.958 44.8307 142.415 41.7823 142.682ZM16.9713 143.618C15.7586 149.843 16.6466 154.482 18.7539 155.681C19.5005 155.97 20.3068 156.103 21.1153 156.071C21.9238 156.039 22.7146 155.844 23.4325 155.498C26.2246 154.414 28.7671 152.847 30.923 150.882C31.367 150.531 31.7802 150.123 32.2264 149.714C30.1566 147.49 28.237 145.149 26.4831 142.704C23.4435 142.469 20.4261 142.041 17.4528 141.422C17.2673 142.186 17.1193 142.914 16.9713 143.618ZM34.2034 147.706C35.5066 146.274 36.8077 144.698 38.111 142.946C36.8077 143.004 35.447 143.033 34.0841 143.033C32.7211 143.033 31.451 143.004 30.1764 142.946C31.5084 144.667 32.8426 146.274 34.2034 147.706ZM27.9829 119.199C26.8586 120.805 25.7629 122.495 24.7269 124.282C23.6909 126.034 22.7477 127.815 21.884 129.591C22.7742 131.344 23.7218 133.125 24.7578 134.937C25.7938 136.69 26.8895 138.416 28.0139 140.047C29.9666 140.165 32.0099 140.23 34.0819 140.23C36.1539 140.23 38.2259 140.172 40.2117 140.027C41.2764 138.422 42.3721 136.697 43.4103 134.915C44.4485 133.134 45.4227 131.323 46.282 129.571C45.4227 127.848 44.4463 126.067 43.4103 124.284C42.3743 122.5 41.2787 120.805 40.183 119.201C38.2016 119.055 36.1561 118.967 34.0841 118.967C32.0121 118.967 29.9688 119.053 27.9829 119.199ZM18.2149 138.738C20.2472 139.167 22.3015 139.489 24.3735 139.703C23.6622 138.594 22.9531 137.482 22.2706 136.314C21.6189 135.176 20.9673 134.037 20.3753 132.898C19.5182 134.882 18.8069 136.843 18.2149 138.738ZM45.8954 136.285C45.215 137.453 44.5325 138.563 43.8543 139.645C45.955 139.401 48.0403 139.05 50.1013 138.594C49.4584 136.622 48.7074 134.682 47.8503 132.781C47.2296 133.949 46.5779 135.117 45.8954 136.285ZM13.152 121.973C7.11267 124.077 3.47233 127.14 3.47233 129.538C3.5872 130.31 3.8655 131.053 4.29183 131.725C4.71816 132.396 5.28589 132.984 5.95741 133.453C8.26798 135.249 10.9187 136.635 13.7749 137.541C14.3073 137.724 14.8683 137.863 15.4316 138.039C16.3417 135.166 17.4396 132.347 18.7186 129.597C17.4352 126.894 16.3483 124.116 15.4626 121.281C14.6629 121.479 13.892 121.709 13.152 121.973ZM49.4783 129.538C50.7927 132.253 51.917 135.043 52.847 137.891C53.2313 137.774 53.6157 137.656 53.9714 137.539C60.5739 135.379 64.6671 132.078 64.6892 129.507C64.6892 127.112 60.9009 124.015 54.7114 121.913C54.0906 121.709 53.4103 121.504 52.7321 121.299C51.8353 124.106 50.7485 126.857 49.4783 129.538ZM45.8689 122.821C46.5492 123.989 47.2009 125.13 47.7907 126.268C48.6146 124.407 49.3259 122.506 49.9223 120.572C47.9122 120.121 45.8755 119.77 43.8234 119.522C44.5347 120.6 45.215 121.682 45.8667 122.821H45.8689ZM18.2436 120.549C18.8379 122.418 19.5469 124.317 20.3753 126.272C20.9695 125.133 21.6189 123.994 22.2706 122.856C22.9222 121.717 23.6026 120.607 24.3139 119.525C22.1822 119.783 20.1699 120.133 18.2436 120.549ZM37.6361 108.135C37.1324 108.573 36.6288 109.04 36.1252 109.509C38.1795 111.705 40.0704 114.029 41.7801 116.466C44.7931 116.735 47.7796 117.203 50.7198 117.868C50.839 117.431 50.9186 116.991 51.018 116.554C52.4052 109.836 51.5503 104.695 49.3016 103.412C48.8068 103.156 48.2457 103.029 47.6803 103.046C45.2614 103.035 41.5504 104.776 37.6361 108.13V108.135ZM18.6876 103.485C16.5869 104.682 15.7563 109.472 17 115.781C17.148 116.453 17.2982 117.123 17.4749 117.824C20.4172 117.184 23.406 116.725 26.4146 116.451C28.1309 114.012 30.0306 111.687 32.1004 109.494C31.7757 109.172 31.4179 108.881 31.0932 108.588C26.9735 104.986 23.0128 103.086 20.4261 103.086C19.8164 103.067 19.2156 103.205 18.6876 103.485ZM38.0492 116.219C36.8298 114.586 35.5111 113.016 34.104 111.517C32.7742 112.947 31.44 114.525 30.1433 116.219C31.4466 116.16 32.7477 116.131 34.0797 116.131C35.4139 116.131 36.7459 116.155 38.0492 116.219ZM28.1618 129.655C28.1353 128.905 28.2679 128.156 28.5528 127.453C28.8378 126.75 29.2708 126.106 29.8274 125.558C30.3819 125.01 31.049 124.568 31.789 124.259C32.5312 123.949 33.3286 123.778 34.1415 123.755C35.7806 123.806 37.3313 124.456 38.4512 125.562C39.5733 126.669 40.1742 128.141 40.1212 129.655C40.1742 131.172 39.5734 132.645 38.4534 133.753C37.3313 134.86 35.7806 135.511 34.1393 135.562C33.3264 135.538 32.5268 135.367 31.7868 135.057C31.0468 134.747 30.3796 134.305 29.823 133.757C29.2685 133.208 28.8356 132.563 28.5506 131.859C28.2657 131.155 28.1331 130.406 28.1618 129.655Z" fill="#4763FF"/>
<path opacity="0.5" d="M167.387 114.423L167.387 60.1348" stroke="#8257E5" stroke-width="0.835206" stroke-dasharray="1.67 1.67"/>
<path opacity="0.5" d="M126.424 130.902L71.9151 130.262" stroke="#8257E5" stroke-width="0.835206" stroke-dasharray="1.67 1.67"/>
<path opacity="0.5" d="M262.286 131.737L207.777 131.097" stroke="#8257E5" stroke-width="0.835206" stroke-dasharray="1.67 1.67"/>
</svg>
