<svg width="173" height="18" viewBox="0 0 173 18" fill="none" xmlns="http://www.w3.org/2000/svg">
<path d="M0.672 11.8358L1.936 10.5558C2.82133 11.4198 3.824 11.8518 4.944 11.8518C5.57333 11.8518 6.07467 11.7131 6.448 11.4358C6.832 11.1584 7.024 10.7744 7.024 10.2838C7.024 9.82509 6.81067 9.45176 6.384 9.16376C5.968 8.86509 5.46133 8.61976 4.864 8.42776C4.26667 8.23576 3.66933 8.02242 3.072 7.78776C2.47467 7.55309 1.96267 7.19042 1.536 6.69976C1.12 6.19842 0.912 5.56909 0.912 4.81176C0.912 3.87309 1.25867 3.11042 1.952 2.52376C2.64533 1.92642 3.584 1.62776 4.768 1.62776C5.48267 1.62776 6.192 1.78242 6.896 2.09175C7.6 2.40109 8.19733 2.87576 8.688 3.51576L7.264 4.63576C6.99733 4.27309 6.64 3.99042 6.192 3.78776C5.75467 3.58509 5.30667 3.47842 4.848 3.46776C4.82667 3.46776 4.80533 3.46776 4.784 3.46776C4.22933 3.46776 3.77067 3.59042 3.408 3.83576C3.056 4.08109 2.88 4.39576 2.88 4.77976C2.88 5.13176 3.02933 5.43576 3.328 5.69176C3.63733 5.93709 4.016 6.12909 4.464 6.26776C4.912 6.39576 5.40267 6.56109 5.936 6.76376C6.46933 6.95576 6.96 7.16909 7.408 7.40376C7.856 7.63842 8.22933 7.99576 8.528 8.47576C8.83733 8.94509 8.992 9.50509 8.992 10.1558C8.992 11.2331 8.61867 12.0971 7.872 12.7478C7.12533 13.3878 6.13867 13.7078 4.912 13.7078C3.19467 13.6864 1.78133 13.0624 0.672 11.8358ZM11.5755 5.89976C12.4502 5.02509 13.5168 4.58776 14.7755 4.58776C16.0128 4.58776 17.0742 5.03042 17.9595 5.91576C18.8448 6.80109 19.2875 7.86242 19.2875 9.09976C19.2875 10.3478 18.8448 11.4144 17.9595 12.2998C17.0742 13.1851 16.0128 13.6278 14.7755 13.6278C13.5168 13.6278 12.4448 13.1851 11.5595 12.2998C10.6848 11.4144 10.2475 10.3478 10.2475 9.09976C10.2475 7.85176 10.6902 6.78509 11.5755 5.89976ZM12.1835 9.09976C12.1835 9.82509 12.4342 10.4384 12.9355 10.9398C13.4368 11.4411 14.0502 11.6918 14.7755 11.6918C15.4902 11.6918 16.0982 11.4411 16.5995 10.9398C17.1008 10.4278 17.3515 9.81442 17.3515 9.09976C17.3515 8.38509 17.1008 7.77709 16.5995 7.27576C16.0982 6.77442 15.4902 6.52376 14.7755 6.52376C14.0502 6.52376 13.4368 6.77442 12.9355 7.27576C12.4342 7.77709 12.1835 8.38509 12.1835 9.09976ZM20.1638 4.69976H21.2838V4.42776C21.2838 3.16909 21.5824 2.24642 22.1798 1.65976C22.7878 1.06242 23.5718 0.763755 24.5318 0.763755C24.9904 0.763755 25.4331 0.838422 25.8598 0.987755L25.3638 2.68375C25.0224 2.63042 24.8091 2.60375 24.7238 2.60375C24.2224 2.60375 23.8384 2.74776 23.5718 3.03576C23.3158 3.31309 23.1878 3.77709 23.1878 4.42776V4.69976H25.3638V6.39576H23.1878V13.4998L21.2838 13.4838V6.39576H20.1638V4.69976ZM26.2575 4.69976H27.4895L27.7455 1.81976H29.3295V4.69976H31.3935V6.39576H29.3295V9.99576C29.3295 10.5931 29.4628 11.0464 29.7295 11.3558C29.9962 11.6651 30.3748 11.8198 30.8655 11.8198C31.0682 11.8198 31.2815 11.7824 31.5055 11.7078L31.9855 13.4038C31.5588 13.5744 31.0948 13.6598 30.5935 13.6598C29.6655 13.6598 28.9028 13.3664 28.3055 12.7798C27.7188 12.1931 27.4255 11.2758 27.4255 10.0278V6.39576H26.2575V4.69976ZM32.7244 4.69976H34.7564L36.7244 10.5718L38.6444 4.69976H40.5804L42.5004 10.5718L44.4684 4.69976H46.5004L43.4444 13.4998H41.5724L39.6044 7.73976L37.6524 13.4998H35.7804L32.7244 4.69976ZM48.5424 5.89976C49.3637 5.01442 50.3557 4.57176 51.5184 4.57176C52.169 4.57176 52.7717 4.74242 53.3264 5.08376C53.881 5.41442 54.2917 5.84109 54.5584 6.36376L54.6704 4.69976H56.4144V13.4998H54.6704L54.5584 11.8518C54.2917 12.3638 53.881 12.7851 53.3264 13.1158C52.7717 13.4464 52.169 13.6118 51.5184 13.6118C50.3557 13.6118 49.3584 13.1691 48.5264 12.2838C47.705 11.3984 47.2944 10.3371 47.2944 9.09976C47.2944 7.85176 47.7104 6.78509 48.5424 5.89976ZM49.9984 10.9558C50.5104 11.4784 51.129 11.7398 51.8544 11.7398C52.5904 11.7398 53.2144 11.4838 53.7264 10.9718C54.249 10.4491 54.5104 9.82509 54.5104 9.09976C54.5104 8.36376 54.249 7.73976 53.7264 7.22776C53.2144 6.70509 52.5904 6.44376 51.8544 6.44376C51.129 6.44376 50.5104 6.70509 49.9984 7.22776C49.4864 7.73976 49.2304 8.36376 49.2304 9.09976C49.2304 9.82509 49.4864 10.4438 49.9984 10.9558ZM58.4931 4.69976H60.2371L60.3651 6.04376C60.9091 5.11576 61.7838 4.65176 62.9891 4.65176C63.0105 4.65176 63.0371 4.65176 63.0691 4.65176C63.3358 4.65176 63.5811 4.66776 63.8051 4.69976L63.4211 6.52376C63.3465 6.51309 63.2451 6.50776 63.1171 6.50776C62.3278 6.50776 61.6771 6.75309 61.1651 7.24376C60.6531 7.72376 60.3971 8.51842 60.3971 9.62776V13.4998H58.4931V4.69976ZM66.0439 5.91576C66.9185 5.03042 67.9745 4.58776 69.2119 4.58776C70.4705 4.58776 71.5319 5.03042 72.3959 5.91576C73.2599 6.79042 73.6919 7.85176 73.6919 9.09976C73.6919 9.13176 73.6759 9.40376 73.6439 9.91576H66.7799C66.8972 10.4704 67.2012 10.9344 67.6919 11.3078C68.1825 11.6704 68.7585 11.8518 69.4199 11.8518C70.3692 11.8518 71.1319 11.5318 71.7079 10.8918L73.2279 11.8518C72.8119 12.3958 72.2572 12.8278 71.5639 13.1478C70.8705 13.4678 70.1559 13.6278 69.4199 13.6278C68.0865 13.6278 66.9719 13.1904 66.0759 12.3158C65.1799 11.4304 64.7319 10.3584 64.7319 9.09976C64.7319 7.86242 65.1692 6.80109 66.0439 5.91576ZM66.7799 8.37976H71.7239C71.6705 7.81442 71.4092 7.33976 70.9399 6.95576C70.4812 6.56109 69.9105 6.36376 69.2279 6.36376C68.5665 6.36376 68.0065 6.56109 67.5479 6.95576C67.0892 7.35042 66.8332 7.82509 66.7799 8.37976ZM79.7625 1.81976H87.0585V3.67576H81.7785V6.60376H86.7385V8.44376H81.7785V11.5478H87.2185V13.4998H79.7625V1.81976ZM88.9775 13.4998V4.69976H90.7215L90.8335 6.12376C91.0895 5.66509 91.4415 5.29176 91.8895 5.00376C92.3375 4.71576 92.8602 4.57176 93.4575 4.57176C94.5242 4.57176 95.3775 4.94509 96.0175 5.69176C96.6575 6.43842 96.9775 7.54776 96.9775 9.01976V13.4998H95.0735V9.01976C95.0735 8.16642 94.8762 7.52642 94.4815 7.09976C94.0868 6.66242 93.5855 6.44376 92.9775 6.44376C92.3695 6.44376 91.8682 6.66242 91.4735 7.09976C91.0788 7.52642 90.8815 8.16642 90.8815 9.01976V13.4998H88.9775ZM99.6674 5.89976C100.489 5.01442 101.481 4.57176 102.643 4.57176C103.294 4.57176 103.897 4.74242 104.451 5.08376C105.006 5.41442 105.417 5.84109 105.683 6.36376L105.795 4.69976H107.539V12.1238C107.539 13.7664 107.097 15.0198 106.211 15.8838C105.326 16.7584 104.147 17.1958 102.675 17.1958C101.929 17.1958 101.214 17.0358 100.531 16.7158C99.8594 16.4064 99.3154 15.9798 98.8994 15.4358L100.323 14.3158C100.942 15.0198 101.758 15.3718 102.771 15.3718C103.593 15.3718 104.275 15.1264 104.819 14.6358C105.363 14.1451 105.635 13.4198 105.635 12.4598V11.8998C105.369 12.4011 104.963 12.8118 104.419 13.1318C103.875 13.4518 103.283 13.6118 102.643 13.6118C101.481 13.6118 100.483 13.1691 99.6514 12.2838C98.83 11.3984 98.4194 10.3371 98.4194 9.09976C98.4194 7.85176 98.8354 6.78509 99.6674 5.89976ZM100.355 9.09976C100.355 9.82509 100.611 10.4491 101.123 10.9718C101.635 11.4838 102.254 11.7398 102.979 11.7398C103.715 11.7398 104.339 11.4838 104.851 10.9718C105.374 10.4491 105.635 9.82509 105.635 9.09976C105.635 8.36376 105.374 7.73976 104.851 7.22776C104.339 6.70509 103.715 6.44376 102.979 6.44376C102.254 6.44376 101.635 6.70509 101.123 7.22776C100.611 7.73976 100.355 8.36376 100.355 9.09976ZM109.618 13.4998V4.69976H111.522V13.4998H109.618ZM109.442 2.76376C109.442 2.45442 109.554 2.18776 109.778 1.96376C110.002 1.72909 110.269 1.61176 110.578 1.61176C110.887 1.61176 111.154 1.72909 111.378 1.96376C111.602 2.18776 111.714 2.45442 111.714 2.76376C111.714 3.07309 111.602 3.33976 111.378 3.56376C111.154 3.78776 110.887 3.89976 110.578 3.89976C110.269 3.89976 110.002 3.78776 109.778 3.56376C109.554 3.33976 109.442 3.07309 109.442 2.76376ZM113.618 13.4998V4.69976H115.362L115.474 6.12376C115.73 5.66509 116.082 5.29176 116.53 5.00376C116.978 4.71576 117.501 4.57176 118.098 4.57176C119.165 4.57176 120.018 4.94509 120.658 5.69176C121.298 6.43842 121.618 7.54776 121.618 9.01976V13.4998H119.714V9.01976C119.714 8.16642 119.517 7.52642 119.122 7.09976C118.727 6.66242 118.226 6.44376 117.618 6.44376C117.01 6.44376 116.509 6.66242 116.114 7.09976C115.719 7.52642 115.522 8.16642 115.522 9.01976V13.4998H113.618ZM124.372 5.91576C125.247 5.03042 126.303 4.58776 127.54 4.58776C128.799 4.58776 129.86 5.03042 130.724 5.91576C131.588 6.79042 132.02 7.85176 132.02 9.09976C132.02 9.13176 132.004 9.40376 131.972 9.91576H125.108C125.225 10.4704 125.529 10.9344 126.02 11.3078C126.511 11.6704 127.087 11.8518 127.748 11.8518C128.697 11.8518 129.46 11.5318 130.036 10.8918L131.556 11.8518C131.14 12.3958 130.585 12.8278 129.892 13.1478C129.199 13.4678 128.484 13.6278 127.748 13.6278C126.415 13.6278 125.3 13.1904 124.404 12.3158C123.508 11.4304 123.06 10.3584 123.06 9.09976C123.06 7.86242 123.497 6.80109 124.372 5.91576ZM125.108 8.37976H130.052C129.999 7.81442 129.737 7.33976 129.268 6.95576C128.809 6.56109 128.239 6.36376 127.556 6.36376C126.895 6.36376 126.335 6.56109 125.876 6.95576C125.417 7.35042 125.161 7.82509 125.108 8.37976ZM134.45 5.91576C135.325 5.03042 136.381 4.58776 137.618 4.58776C138.877 4.58776 139.938 5.03042 140.802 5.91576C141.666 6.79042 142.098 7.85176 142.098 9.09976C142.098 9.13176 142.082 9.40376 142.05 9.91576H135.186C135.303 10.4704 135.607 10.9344 136.098 11.3078C136.589 11.6704 137.165 11.8518 137.826 11.8518C138.775 11.8518 139.538 11.5318 140.114 10.8918L141.634 11.8518C141.218 12.3958 140.663 12.8278 139.97 13.1478C139.277 13.4678 138.562 13.6278 137.826 13.6278C136.493 13.6278 135.378 13.1904 134.482 12.3158C133.586 11.4304 133.138 10.3584 133.138 9.09976C133.138 7.86242 133.575 6.80109 134.45 5.91576ZM135.186 8.37976H140.13C140.077 7.81442 139.815 7.33976 139.346 6.95576C138.887 6.56109 138.317 6.36376 137.634 6.36376C136.973 6.36376 136.413 6.56109 135.954 6.95576C135.495 7.35042 135.239 7.82509 135.186 8.37976ZM143.696 4.69976H145.44L145.568 6.04376C146.112 5.11576 146.987 4.65176 148.192 4.65176C148.214 4.65176 148.24 4.65176 148.272 4.65176C148.539 4.65176 148.784 4.66776 149.008 4.69976L148.624 6.52376C148.55 6.51309 148.448 6.50776 148.32 6.50776C147.531 6.50776 146.88 6.75309 146.368 7.24376C145.856 7.72376 145.6 8.51842 145.6 9.62776V13.4998H143.696V4.69976ZM150.415 13.4998V4.69976H152.319V13.4998H150.415ZM150.239 2.76376C150.239 2.45442 150.351 2.18776 150.575 1.96376C150.799 1.72909 151.066 1.61176 151.375 1.61176C151.684 1.61176 151.951 1.72909 152.175 1.96376C152.399 2.18776 152.511 2.45442 152.511 2.76376C152.511 3.07309 152.399 3.33976 152.175 3.56376C151.951 3.78776 151.684 3.89976 151.375 3.89976C151.066 3.89976 150.799 3.78776 150.575 3.56376C150.351 3.33976 150.239 3.07309 150.239 2.76376ZM154.415 13.4998V4.69976H156.159L156.271 6.12376C156.527 5.66509 156.879 5.29176 157.327 5.00376C157.775 4.71576 158.298 4.57176 158.895 4.57176C159.962 4.57176 160.815 4.94509 161.455 5.69176C162.095 6.43842 162.415 7.54776 162.415 9.01976V13.4998H160.511V9.01976C160.511 8.16642 160.314 7.52642 159.919 7.09976C159.524 6.66242 159.023 6.44376 158.415 6.44376C157.807 6.44376 157.306 6.66242 156.911 7.09976C156.516 7.52642 156.319 8.16642 156.319 9.01976V13.4998H154.415ZM165.105 5.89976C165.926 5.01442 166.918 4.57176 168.081 4.57176C168.732 4.57176 169.334 4.74242 169.889 5.08376C170.444 5.41442 170.854 5.84109 171.121 6.36376L171.233 4.69976H172.977V12.1238C172.977 13.7664 172.534 15.0198 171.649 15.8838C170.764 16.7584 169.585 17.1958 168.113 17.1958C167.366 17.1958 166.652 17.0358 165.969 16.7158C165.297 16.4064 164.753 15.9798 164.337 15.4358L165.761 14.3158C166.38 15.0198 167.196 15.3718 168.209 15.3718C169.03 15.3718 169.713 15.1264 170.257 14.6358C170.801 14.1451 171.073 13.4198 171.073 12.4598V11.8998C170.806 12.4011 170.401 12.8118 169.857 13.1318C169.313 13.4518 168.721 13.6118 168.081 13.6118C166.918 13.6118 165.921 13.1691 165.089 12.2838C164.268 11.3984 163.857 10.3371 163.857 9.09976C163.857 7.85176 164.273 6.78509 165.105 5.89976ZM165.793 9.09976C165.793 9.82509 166.049 10.4491 166.561 10.9718C167.073 11.4838 167.692 11.7398 168.417 11.7398C169.153 11.7398 169.777 11.4838 170.289 10.9718C170.812 10.4491 171.073 9.82509 171.073 9.09976C171.073 8.36376 170.812 7.73976 170.289 7.22776C169.777 6.70509 169.153 6.44376 168.417 6.44376C167.692 6.44376 167.073 6.70509 166.561 7.22776C166.049 7.73976 165.793 8.36376 165.793 9.09976Z" fill="white"/>
</svg>
