<svg width="158" height="27" viewBox="0 0 158 27" fill="none" xmlns="http://www.w3.org/2000/svg">
<path d="M2.33395 11.4737C2.84992 11.0768 3.10791 10.4219 3.10791 9.50906V5.52022C3.10791 3.91278 3.59411 2.6427 4.56651 1.70999C5.55876 0.75743 6.93798 0.281151 8.70419 0.281151V3.13883C7.83101 3.13883 7.20589 3.31743 6.82884 3.67464C6.47163 4.03185 6.29302 4.65697 6.29302 5.54999V9.53883C6.29302 11.2256 5.69767 12.5553 4.50698 13.5277C5.69767 14.5001 6.29302 15.8198 6.29302 17.4867V21.5053C6.29302 22.3984 6.47163 23.0235 6.82884 23.3807C7.20589 23.7379 7.83101 23.9165 8.70419 23.9165V26.7742C6.93798 26.7742 5.55876 26.2979 4.56651 25.3453C3.59411 24.4126 3.10791 23.1425 3.10791 21.5351V17.5165C3.10791 16.6235 2.84992 15.9785 2.33395 15.5816C1.81798 15.1649 1.20279 14.9565 0.488372 14.9565V12.0988C1.20279 12.0988 1.81798 11.8905 2.33395 11.4737ZM68.803 20.2253C69.1999 19.8284 69.6861 19.63 70.2616 19.63C70.8173 19.63 71.2936 19.8384 71.6905 20.2551C72.0874 20.652 72.2858 21.1382 72.2858 21.7137C72.2858 22.2694 72.0874 22.7556 71.6905 23.1723C71.2936 23.5692 70.8173 23.7677 70.2616 23.7677C69.6861 23.7677 69.19 23.5692 68.7733 23.1723C68.3764 22.7754 68.1779 22.2892 68.1779 21.7137C68.1779 21.1382 68.3863 20.6421 68.803 20.2253ZM149.05 23.9165C149.923 23.9165 150.548 23.7379 150.925 23.3807C151.302 23.0235 151.491 22.3984 151.491 21.5053V17.4867C151.491 15.7999 152.086 14.4802 153.277 13.5277C152.086 12.5751 151.491 11.2455 151.491 9.53883V5.54999C151.491 4.65697 151.302 4.03185 150.925 3.67464C150.548 3.31743 149.923 3.13883 149.05 3.13883V0.281151C150.816 0.281151 152.195 0.75743 153.188 1.70999C154.18 2.6427 154.676 3.91278 154.676 5.52022V9.50906C154.676 10.4219 154.924 11.0867 155.42 11.5035C155.936 11.9004 156.551 12.0988 157.266 12.0988V14.9565C156.551 14.9565 155.936 15.1649 155.42 15.5816C154.924 15.9785 154.676 16.6235 154.676 17.5165V21.5351C154.676 23.1425 154.18 24.4126 153.188 25.3453C152.195 26.2979 150.816 26.7742 149.05 26.7742V23.9165Z" fill="#8257E5"/>
<path d="M12.6835 9.36022C14.2116 7.71309 16.0571 6.88952 18.2202 6.88952C19.4109 6.88952 20.5123 7.19712 21.5244 7.81231C22.5564 8.40766 23.3105 9.17169 23.7867 10.1044V0.281151H27.3291V23.4998H24.0844L23.876 20.4337C23.3799 21.3863 22.6159 22.1701 21.584 22.7853C20.552 23.4005 19.4308 23.7081 18.2202 23.7081C16.0571 23.7081 14.2016 22.8846 12.6537 21.2374C11.1257 19.5903 10.3616 17.6157 10.3616 15.3137C10.3616 12.9918 11.1356 11.0074 12.6835 9.36022ZM15.3923 18.7667C16.3449 19.7391 17.4959 20.2253 18.8453 20.2253C20.2147 20.2253 21.3756 19.7491 22.3281 18.7965C23.3005 17.8241 23.7867 16.6632 23.7867 15.3137C23.7867 13.9444 23.3005 12.7835 22.3281 11.8309C21.3756 10.8585 20.2147 10.3723 18.8453 10.3723C17.4959 10.3723 16.3449 10.8585 15.3923 11.8309C14.4398 12.7835 13.9635 13.9444 13.9635 15.3137C13.9635 16.6632 14.4398 17.8142 15.3923 18.7667ZM32.6253 9.36022C34.1534 7.71309 35.999 6.88952 38.1621 6.88952C39.3726 6.88952 40.4939 7.20704 41.5258 7.84208C42.5578 8.45727 43.3218 9.25107 43.8179 10.2235L44.0263 7.12766H47.2709V23.4998H44.0263L43.8179 20.4337C43.3218 21.3863 42.5578 22.1701 41.5258 22.7853C40.4939 23.4005 39.3726 23.7081 38.1621 23.7081C35.999 23.7081 34.1435 22.8846 32.5956 21.2374C31.0675 19.5903 30.3035 17.6157 30.3035 15.3137C30.3035 12.9918 31.0774 11.0074 32.6253 9.36022ZM35.3342 18.7667C36.2867 19.7391 37.4378 20.2253 38.7872 20.2253C40.1565 20.2253 41.3174 19.7491 42.27 18.7965C43.2424 17.8241 43.7286 16.6632 43.7286 15.3137C43.7286 13.9444 43.2424 12.7835 42.27 11.8309C41.3174 10.8585 40.1565 10.3723 38.7872 10.3723C37.4378 10.3723 36.2867 10.8585 35.3342 11.8309C34.3816 12.7835 33.9053 13.9444 33.9053 15.3137C33.9053 16.6632 34.3816 17.8142 35.3342 18.7667ZM49.7988 7.12766H54.0258L58.2528 12.6049L62.45 7.12766H66.6472L60.664 15.3137L66.6472 23.4998H62.45L58.2528 18.0225L54.0258 23.4998H49.7988L55.8119 15.3137L49.7988 7.12766ZM76.6986 9.36022C78.3259 7.73293 80.3104 6.91929 82.6521 6.91929C84.0214 6.91929 85.3113 7.23681 86.5219 7.87185C87.7324 8.50689 88.7346 9.37014 89.5284 10.4616L86.5814 12.4263C85.609 11.1562 84.2992 10.5212 82.6521 10.5212C81.3026 10.5212 80.1615 10.9875 79.2288 11.9202C78.2961 12.8529 77.8298 13.9841 77.8298 15.3137C77.8298 16.6632 78.2961 17.8043 79.2288 18.737C80.1615 19.6697 81.3026 20.136 82.6521 20.136C84.3588 20.136 85.6983 19.4415 86.6707 18.0523L89.5879 20.017C88.8338 21.168 87.8415 22.0808 86.6112 22.7556C85.3808 23.4105 84.0611 23.7379 82.6521 23.7379C80.3104 23.7379 78.316 22.9143 76.6688 21.2672C75.0415 19.6201 74.2279 17.6356 74.2279 15.3137C74.2279 12.9918 75.0515 11.0074 76.6986 9.36022ZM94.0823 9.36022C95.7096 7.73293 97.6941 6.91929 100.036 6.91929C102.338 6.91929 104.312 7.74286 105.96 9.38999C107.607 11.0371 108.43 13.0117 108.43 15.3137C108.43 17.6356 107.607 19.6201 105.96 21.2672C104.312 22.9143 102.338 23.7379 100.036 23.7379C97.6941 23.7379 95.6997 22.9143 94.0526 21.2672C92.4253 19.6201 91.6116 17.6356 91.6116 15.3137C91.6116 12.9918 92.4352 11.0074 94.0823 9.36022ZM95.2135 15.3137C95.2135 16.6632 95.6798 17.8043 96.6126 18.737C97.5453 19.6697 98.6864 20.136 100.036 20.136C101.365 20.136 102.497 19.6697 103.429 18.737C104.362 17.7844 104.828 16.6433 104.828 15.3137C104.828 13.9841 104.362 12.8529 103.429 11.9202C102.497 10.9875 101.365 10.5212 100.036 10.5212C98.6864 10.5212 97.5453 10.9875 96.6126 11.9202C95.6798 12.8529 95.2135 13.9841 95.2135 15.3137ZM112.829 9.36022C114.357 7.71309 116.202 6.88952 118.366 6.88952C119.556 6.88952 120.658 7.19712 121.67 7.81231C122.702 8.40766 123.456 9.17169 123.932 10.1044V0.281151H127.474V23.4998H124.23L124.021 20.4337C123.525 21.3863 122.761 22.1701 121.729 22.7853C120.697 23.4005 119.576 23.7081 118.366 23.7081C116.202 23.7081 114.347 22.8846 112.799 21.2374C111.271 19.5903 110.507 17.6157 110.507 15.3137C110.507 12.9918 111.281 11.0074 112.829 9.36022ZM115.538 18.7667C116.49 19.7391 117.641 20.2253 118.991 20.2253C120.36 20.2253 121.521 19.7491 122.473 18.7965C123.446 17.8241 123.932 16.6632 123.932 15.3137C123.932 13.9444 123.446 12.7835 122.473 11.8309C121.521 10.8585 120.36 10.3723 118.991 10.3723C117.641 10.3723 116.49 10.8585 115.538 11.8309C114.585 12.7835 114.109 13.9444 114.109 15.3137C114.109 16.6632 114.585 17.8142 115.538 18.7667ZM132.89 9.38999C134.517 7.74286 136.482 6.91929 138.784 6.91929C141.125 6.91929 143.1 7.74286 144.707 9.38999C146.315 11.0173 147.119 12.9918 147.119 15.3137C147.119 15.3732 147.089 15.8793 147.029 16.8318H134.259C134.477 17.8638 135.043 18.727 135.956 19.4216C136.869 20.0963 137.94 20.4337 139.171 20.4337C140.937 20.4337 142.356 19.8384 143.427 18.6477L146.255 20.4337C145.481 21.4458 144.449 22.2495 143.16 22.8449C141.87 23.4402 140.54 23.7379 139.171 23.7379C136.69 23.7379 134.616 22.9243 132.949 21.297C131.282 19.6498 130.449 17.6554 130.449 15.3137C130.449 13.0117 131.262 11.0371 132.89 9.38999ZM134.259 13.9742H143.457C143.358 12.9224 142.872 12.0393 141.999 11.3249C141.145 10.5906 140.084 10.2235 138.813 10.2235C137.583 10.2235 136.541 10.5906 135.688 11.3249C134.835 12.0591 134.358 12.9422 134.259 13.9742Z" fill="white"/>
</svg>
